<svg width="418" height="298" viewBox="0 0 418 298" fill="none" xmlns="http://www.w3.org/2000/svg">
<path d="M218 60.5C218 54.701 222.701 50 228.5 50C234.299 50 239 54.701 239 60.5V218H218V60.5Z" fill="#116CBE"/>
<path d="M228.5 71C222.701 71 218 66.299 218 60.5C218 54.701 222.701 50 228.5 50L343 50V71L228.5 71Z" fill="url(#paint0_linear_1014_18)"/>
<path d="M68 71V50L182.5 50C188.299 50 193 54.701 193 60.5C193 66.299 188.299 71 182.5 71H68Z" fill="url(#paint1_linear_1014_18)"/>
<rect x="176" y="21" width="21" height="168" transform="rotate(-90 176 21)" fill="url(#paint2_linear_1014_18)"/>
<path d="M68 21V0L182.5 0C188.299 0 193 4.70101 193 10.5C193 16.299 188.299 21 182.5 21L68 21Z" fill="url(#paint3_linear_1014_18)"/>
<path d="M176 10.5C176 4.70101 180.701 0 186.5 0C192.299 0 197 4.70101 197 10.5V218H176V10.5Z" fill="#298CE6"/>
<path d="M25.152 245.64V250.104H16.272V279H10.8V250.104H1.872V245.64H25.152ZM56.3738 265.128C56.3738 266.12 56.3098 267.016 56.1818 267.816H35.9738C36.1338 269.928 36.9178 271.624 38.3258 272.904C39.7338 274.184 41.4618 274.824 43.5098 274.824C46.4538 274.824 48.5338 273.592 49.7498 271.128H55.6538C54.8538 273.56 53.3978 275.56 51.2858 277.128C49.2058 278.664 46.6138 279.432 43.5098 279.432C40.9818 279.432 38.7098 278.872 36.6938 277.752C34.7098 276.6 33.1418 275 31.9898 272.952C30.8698 270.872 30.3098 268.472 30.3098 265.752C30.3098 263.032 30.8538 260.648 31.9418 258.6C33.0618 256.52 34.6138 254.92 36.5978 253.8C38.6138 252.68 40.9178 252.12 43.5098 252.12C46.0058 252.12 48.2298 252.664 50.1818 253.752C52.1338 254.84 53.6538 256.376 54.7418 258.36C55.8298 260.312 56.3738 262.568 56.3738 265.128ZM50.6618 263.4C50.6298 261.384 49.9098 259.768 48.5018 258.552C47.0938 257.336 45.3498 256.728 43.2698 256.728C41.3818 256.728 39.7658 257.336 38.4218 258.552C37.0778 259.736 36.2778 261.352 36.0218 263.4H50.6618ZM69.5828 257.016V271.656C69.5828 272.648 69.8068 273.368 70.2548 273.816C70.7348 274.232 71.5348 274.44 72.6548 274.44H76.0148V279H71.6948C69.2308 279 67.3428 278.424 66.0308 277.272C64.7188 276.12 64.0628 274.248 64.0628 271.656V257.016H60.9428V252.552H64.0628V245.976H69.5828V252.552H76.0148V257.016H69.5828ZM87.9701 256.392C88.7701 255.048 89.8261 254.008 91.1381 253.272C92.4821 252.504 94.0661 252.12 95.8901 252.12V257.784H94.4981C92.3541 257.784 90.7221 258.328 89.6021 259.416C88.5141 260.504 87.9701 262.392 87.9701 265.08V279H82.4981V252.552H87.9701V256.392ZM100.536 265.656C100.536 263 101.08 260.648 102.168 258.6C103.288 256.552 104.792 254.968 106.68 253.848C108.6 252.696 110.712 252.12 113.016 252.12C115.096 252.12 116.904 252.536 118.44 253.368C120.008 254.168 121.256 255.176 122.184 256.392V252.552H127.704V279H122.184V275.064C121.256 276.312 119.992 277.352 118.392 278.184C116.792 279.016 114.968 279.432 112.92 279.432C110.648 279.432 108.568 278.856 106.68 277.704C104.792 276.52 103.288 274.888 102.168 272.808C101.08 270.696 100.536 268.312 100.536 265.656ZM122.184 265.752C122.184 263.928 121.8 262.344 121.032 261C120.296 259.656 119.32 258.632 118.104 257.928C116.888 257.224 115.576 256.872 114.168 256.872C112.76 256.872 111.448 257.224 110.232 257.928C109.016 258.6 108.024 259.608 107.256 260.952C106.52 262.264 106.152 263.832 106.152 265.656C106.152 267.48 106.52 269.08 107.256 270.456C108.024 271.832 109.016 272.888 110.232 273.624C111.48 274.328 112.792 274.68 114.168 274.68C115.576 274.68 116.888 274.328 118.104 273.624C119.32 272.92 120.296 271.896 121.032 270.552C121.8 269.176 122.184 267.576 122.184 265.752ZM155.712 245.64V279H150.24V245.64H155.712ZM177.68 252.12C179.76 252.12 181.616 252.552 183.248 253.416C184.912 254.28 186.208 255.56 187.136 257.256C188.064 258.952 188.528 261 188.528 263.4V279H183.104V264.216C183.104 261.848 182.512 260.04 181.328 258.792C180.144 257.512 178.528 256.872 176.48 256.872C174.432 256.872 172.8 257.512 171.584 258.792C170.4 260.04 169.808 261.848 169.808 264.216V279H164.336V252.552H169.808V255.576C170.704 254.488 171.84 253.64 173.216 253.032C174.624 252.424 176.112 252.12 177.68 252.12ZM210.292 252.12C212.372 252.12 214.228 252.552 215.86 253.416C217.524 254.28 218.82 255.56 219.748 257.256C220.676 258.952 221.14 261 221.14 263.4V279H215.716V264.216C215.716 261.848 215.124 260.04 213.94 258.792C212.756 257.512 211.14 256.872 209.092 256.872C207.044 256.872 205.412 257.512 204.196 258.792C203.012 260.04 202.42 261.848 202.42 264.216V279H196.948V252.552H202.42V255.576C203.316 254.488 204.452 253.64 205.828 253.032C207.236 252.424 208.724 252.12 210.292 252.12ZM241.032 279.432C238.536 279.432 236.28 278.872 234.264 277.752C232.248 276.6 230.664 275 229.512 272.952C228.36 270.872 227.784 268.472 227.784 265.752C227.784 263.064 228.376 260.68 229.56 258.6C230.744 256.52 232.36 254.92 234.408 253.8C236.456 252.68 238.744 252.12 241.272 252.12C243.8 252.12 246.088 252.68 248.136 253.8C250.184 254.92 251.8 256.52 252.984 258.6C254.168 260.68 254.76 263.064 254.76 265.752C254.76 268.44 254.152 270.824 252.936 272.904C251.72 274.984 250.056 276.6 247.944 277.752C245.864 278.872 243.56 279.432 241.032 279.432ZM241.032 274.68C242.44 274.68 243.752 274.344 244.968 273.672C246.216 273 247.224 271.992 247.992 270.648C248.76 269.304 249.144 267.672 249.144 265.752C249.144 263.832 248.776 262.216 248.04 260.904C247.304 259.56 246.328 258.552 245.112 257.88C243.896 257.208 242.584 256.872 241.176 256.872C239.768 256.872 238.456 257.208 237.24 257.88C236.056 258.552 235.112 259.56 234.408 260.904C233.704 262.216 233.352 263.832 233.352 265.752C233.352 268.6 234.072 270.808 235.512 272.376C236.984 273.912 238.824 274.68 241.032 274.68ZM271.833 274.104L279.321 252.552H285.129L275.049 279H268.521L258.489 252.552H264.345L271.833 274.104ZM288.882 265.656C288.882 263 289.426 260.648 290.514 258.6C291.634 256.552 293.138 254.968 295.026 253.848C296.946 252.696 299.058 252.12 301.362 252.12C303.442 252.12 305.25 252.536 306.786 253.368C308.354 254.168 309.602 255.176 310.53 256.392V252.552H316.05V279H310.53V275.064C309.602 276.312 308.338 277.352 306.738 278.184C305.138 279.016 303.314 279.432 301.266 279.432C298.994 279.432 296.914 278.856 295.026 277.704C293.138 276.52 291.634 274.888 290.514 272.808C289.426 270.696 288.882 268.312 288.882 265.656ZM310.53 265.752C310.53 263.928 310.146 262.344 309.378 261C308.642 259.656 307.666 258.632 306.45 257.928C305.234 257.224 303.922 256.872 302.514 256.872C301.106 256.872 299.794 257.224 298.578 257.928C297.362 258.6 296.37 259.608 295.602 260.952C294.866 262.264 294.498 263.832 294.498 265.656C294.498 267.48 294.866 269.08 295.602 270.456C296.37 271.832 297.362 272.888 298.578 273.624C299.826 274.328 301.138 274.68 302.514 274.68C303.922 274.68 305.234 274.328 306.45 273.624C307.666 272.92 308.642 271.896 309.378 270.552C310.146 269.176 310.53 267.576 310.53 265.752ZM331.061 257.016V271.656C331.061 272.648 331.285 273.368 331.733 273.816C332.213 274.232 333.013 274.44 334.133 274.44H337.493V279H333.173C330.709 279 328.821 278.424 327.509 277.272C326.197 276.12 325.541 274.248 325.541 271.656V257.016H322.421V252.552H325.541V245.976H331.061V252.552H337.493V257.016H331.061ZM346.76 249.048C345.768 249.048 344.936 248.712 344.264 248.04C343.592 247.368 343.256 246.536 343.256 245.544C343.256 244.552 343.592 243.72 344.264 243.048C344.936 242.376 345.768 242.04 346.76 242.04C347.72 242.04 348.536 242.376 349.208 243.048C349.88 243.72 350.216 244.552 350.216 245.544C350.216 246.536 349.88 247.368 349.208 248.04C348.536 248.712 347.72 249.048 346.76 249.048ZM349.448 252.552V279H343.976V252.552H349.448ZM369.545 279.432C367.049 279.432 364.793 278.872 362.777 277.752C360.761 276.6 359.177 275 358.025 272.952C356.873 270.872 356.297 268.472 356.297 265.752C356.297 263.064 356.889 260.68 358.073 258.6C359.257 256.52 360.873 254.92 362.921 253.8C364.969 252.68 367.257 252.12 369.785 252.12C372.313 252.12 374.601 252.68 376.649 253.8C378.697 254.92 380.313 256.52 381.497 258.6C382.681 260.68 383.273 263.064 383.273 265.752C383.273 268.44 382.665 270.824 381.449 272.904C380.233 274.984 378.569 276.6 376.457 277.752C374.377 278.872 372.073 279.432 369.545 279.432ZM369.545 274.68C370.953 274.68 372.265 274.344 373.481 273.672C374.729 273 375.737 271.992 376.505 270.648C377.273 269.304 377.657 267.672 377.657 265.752C377.657 263.832 377.289 262.216 376.553 260.904C375.817 259.56 374.841 258.552 373.625 257.88C372.409 257.208 371.097 256.872 369.689 256.872C368.281 256.872 366.969 257.208 365.753 257.88C364.569 258.552 363.625 259.56 362.921 260.904C362.217 262.216 361.865 263.832 361.865 265.752C361.865 268.6 362.585 270.808 364.025 272.376C365.497 273.912 367.337 274.68 369.545 274.68ZM403.466 252.12C405.546 252.12 407.402 252.552 409.034 253.416C410.698 254.28 411.994 255.56 412.922 257.256C413.85 258.952 414.314 261 414.314 263.4V279H408.89V264.216C408.89 261.848 408.298 260.04 407.114 258.792C405.93 257.512 404.314 256.872 402.266 256.872C400.218 256.872 398.586 257.512 397.37 258.792C396.186 260.04 395.594 261.848 395.594 264.216V279H390.122V252.552H395.594V255.576C396.49 254.488 397.626 253.64 399.002 253.032C400.41 252.424 401.898 252.12 403.466 252.12Z" fill="black"/>
<defs>
<linearGradient id="paint0_linear_1014_18" x1="218" y1="60.5" x2="343" y2="60.5" gradientUnits="userSpaceOnUse">
<stop stop-color="#2889E1"/>
<stop offset="1" stop-color="#0C4475"/>
</linearGradient>
<linearGradient id="paint1_linear_1014_18" x1="68" y1="60.5" x2="193" y2="60.5" gradientUnits="userSpaceOnUse">
<stop stop-color="#298CE6"/>
<stop offset="1" stop-color="#0C4577"/>
</linearGradient>
<linearGradient id="paint2_linear_1014_18" x1="187" y1="52" x2="197" y2="189" gradientUnits="userSpaceOnUse">
<stop stop-color="#298CE6"/>
<stop offset="1" stop-color="#0B4373"/>
</linearGradient>
<linearGradient id="paint3_linear_1014_18" x1="68" y1="10.5" x2="193" y2="10.5" gradientUnits="userSpaceOnUse">
<stop stop-color="#298CE6"/>
<stop offset="1" stop-color="#0C4576"/>
</linearGradient>
</defs>
</svg>
